<svg xmlns="http://www.w3.org/2000/svg" viewBox="0 0 128 128">
  <path fill="#0f1689" d="M64 2.75c-6.95 0-14.26 7.04-20.02 19.34-4.79 10.23-8.12 23.72-9.2 38.91h58.44c-1.08-15.19-4.41-28.68-9.2-38.91C78.26 9.79 70.95 2.75 64 2.75z"/>
  <path fill="#0f1689" d="M34.78 67c.18 4.87.55 9.58 1.1 14.07.97 7.96 2.45 15.14 4.32 21.28 3.57 11.7 8.54 19.89 14.33 23.47 1.44.89 2.92 1.54 4.44 1.94-3.66-1.51-7.07-5.12-10.05-10.71-3.57-6.69-6.35-15.59-8.12-25.98-.93-5.47-1.58-11.34-1.93-17.52h47.26c-.35 6.18-1 12.05-1.93 17.52-1.77 10.39-4.55 19.29-8.12 25.98-2.98 5.59-6.39 9.2-10.05 10.71 1.52-.4 3-1.05 4.44-1.94 5.79-3.58 10.76-11.77 14.33-23.47 1.87-6.14 3.35-13.32 4.32-21.28.55-4.49.92-9.2 1.1-14.07H34.78z"/>
  <ellipse cx="64" cy="59.5" fill="#fff" rx="8" ry="8"/>
</svg>
